# xmcd
# Copyright (C) 1995-1998 Ti Kan
#
# Track frame offsets:
#       150
#       17453
#       35057
#       46823
#       63423
#       75816
#       90494
#       106718
#       122328
#       139826
#       157394
#       173411
#       195862
#       203784
#
# Disc length: 3082 seconds
#
# Revision: 0
# Processed by: cddbd v1.5.2PL0 Copyright (c) Steve Scherf et al.
# Submitted via: CD-Import v1.0
#
DISCID=9f0c080e
DTITLE=Mick Est Tout Seul  - Les Chansons Perdues
DYEAR=2007
DGENRE=
TTITLE0=Modi
TTITLE1=La Cle Des Champs
TTITLE2=J'te Jure
TTITLE3=Les Hommes Se Cachent Pour Pleurer
TTITLE4=Encore
TTITLE5=Si Tu Tombes
TTITLE6=L'invitation Au Mal
TTITLE7=Ou Sont Passes Les Reves ?
TTITLE8=Des Filles Et Puis Des Mecs
TTITLE9=Allez !
TTITLE10=Des Oiseaux Dans Mon Ventre
TTITLE11=Au Bois D'aline
TTITLE12=Pianotom
TTITLE13=L'ocean
EXTD=
EXTT0=
EXTT1=
EXTT2=
EXTT3=
EXTT4=
EXTT5=
EXTT6=
EXTT7=
EXTT8=
EXTT9=
EXTT10=
EXTT11=
EXTT12=
EXTT13=
PLAYORDER=
